<mxfile host="app.diagrams.net" modified="2023-05-20T04:45:58.299Z" agent="Mozilla/5.0 (Macintosh; Intel Mac OS X 10_15_7) AppleWebKit/537.36 (KHTML, like Gecko) Chrome/113.0.0.0 Safari/537.36" version="21.3.2" etag="JpGT8qop60LYn8N8a3y1" type="github">
  <diagram name="第 1 页" id="hGclJ4aoulJgpEdYCdQY">
    <mxGraphModel>
      <root>
        <mxCell id="0" />
        <mxCell id="1" parent="0" />
      </root>
    </mxGraphModel>
  </diagram>
</mxfile>
